
<svg xmlns="http://www.w3.org/2000/svg" version="1.1" xmlns:xlink="http://www.w3.org/1999/xlink" preserveAspectRatio="none" x="0px" y="0px" width="550px" height="400px" viewBox="0 0 550 400">
<defs>
<g id="Layer3_0_FILL">
<path fill="#00FF99" stroke="none" d="
M 455.7 341.15
Q 402.4 318 327 318 251.6 318 198.3 341.15 145 364.3 145 397 145 429.7 198.3 452.85 251.6 476 327 476 402.4 476 455.7 452.85 509 429.7 509 397 509 364.3 455.7 341.15 Z"/>
</g>

<g id="Layer2_0_FILL">
<path fill="#00CC00" stroke="none" d="
M 322.5 372.6
Q 266.25 353.8 186.7 353.8 107.2 353.8 50.95 372.6 -5.25 391.55 -5.25 418.25 -5.25 445 50.95 463.85 107.2 482.75 186.7 482.75 266.25 482.75 322.5 463.85 378.7 445 378.7 418.25 378.7 391.55 322.5 372.6 Z"/>
</g>

<g id="Layer1_0_FILL">
<path fill="#00CC33" stroke="none" d="
M 532.15 381.75
Q 514.25 373.6 489 373.6 463.75 373.6 445.85 381.75 428 389.95 428 401.55 428 413.15 445.85 421.35 463.75 429.55 489 429.55 514.25 429.55 532.15 421.35 550 413.15 550 401.55 550 389.95 532.15 381.75 Z"/>
</g>

<g id="Layer0_0_FILL">
<path fill="#009966" stroke="none" d="
M 48.5 370
Q 25.1 370 8.55 375.4 -8 380.85 -8 388.5 -8 396.15 8.55 401.55 25.1 407 48.5 407 71.9 407 88.45 401.55 105 396.15 105 388.5 105 380.85 88.45 375.4 71.9 370 48.5 370 Z"/>
</g>

<path id="Layer3_0_1_STROKES" stroke="#00FF99" stroke-width="1" stroke-linejoin="round" stroke-linecap="round" fill="none" d="
M 509 397
Q 509 429.7 455.7 452.85 402.4 476 327 476 251.6 476 198.3 452.85 145 429.7 145 397 145 364.3 198.3 341.15 251.6 318 327 318 402.4 318 455.7 341.15 509 364.3 509 397 Z"/>

<path id="Layer2_0_1_STROKES" stroke="#00CC00" stroke-width="1" stroke-linejoin="round" stroke-linecap="round" fill="none" d="
M 378.7 418.25
Q 378.7 445 322.5 463.85 266.25 482.75 186.7 482.75 107.2 482.75 50.95 463.85 -5.25 445 -5.25 418.25 -5.25 391.55 50.95 372.6 107.2 353.8 186.7 353.8 266.25 353.8 322.5 372.6 378.7 391.55 378.7 418.25 Z"/>

<path id="Layer1_0_1_STROKES" stroke="#00CC33" stroke-width="1" stroke-linejoin="round" stroke-linecap="round" fill="none" d="
M 550 401.55
Q 550 413.15 532.15 421.35 514.25 429.55 489 429.55 463.75 429.55 445.85 421.35 428 413.15 428 401.55 428 389.95 445.85 381.75 463.75 373.6 489 373.6 514.25 373.6 532.15 381.75 550 389.95 550 401.55 Z"/>

<path id="Layer0_0_1_STROKES" stroke="#009966" stroke-width="1" stroke-linejoin="round" stroke-linecap="round" fill="none" d="
M 105 388.5
Q 105 396.15 88.45 401.55 71.9 407 48.5 407 25.1 407 8.55 401.55 -8 396.15 -8 388.5 -8 380.85 8.55 375.4 25.1 370 48.5 370 71.9 370 88.45 375.4 105 380.85 105 388.5 Z"/>
</defs>

<g transform="matrix( 1, 0, 0, 1, 37,24) ">
<use xlink:href="#Layer3_0_FILL"/>

<use xlink:href="#Layer3_0_1_STROKES"/>
</g>

<g transform="matrix( 1, 0, 0, 1, 0,0) ">
<use xlink:href="#Layer2_0_FILL"/>

<use xlink:href="#Layer2_0_1_STROKES"/>
</g>

<g transform="matrix( 1, 0, 0, 1, 0,0) ">
<use xlink:href="#Layer1_0_FILL"/>

<use xlink:href="#Layer1_0_1_STROKES"/>
</g>

<g transform="matrix( 1, 0, 0, 1, 8,13) ">
<use xlink:href="#Layer0_0_FILL"/>

<use xlink:href="#Layer0_0_1_STROKES"/>
</g>
</svg>
