
<svg xmlns="http://www.w3.org/2000/svg" version="1.1" xmlns:xlink="http://www.w3.org/1999/xlink" preserveAspectRatio="none" x="0px" y="0px" width="550px" height="400px" viewBox="0 0 550 400">
<defs>
<g id="Layer6_0_FILL">
<path fill="#666666" stroke="none" d="
M 277.1 163
L 277.1 179.9 294.45 175 313.5 169.6 308.8 153.4 294.45 157.75 277.1 163
M 277.1 179.9
L 277.1 163 272.35 164.45 264.25 166.9 268.25 182.45 272.35 181.25 277.1 179.9 Z"/>
</g>

<g id="Layer5_0_FILL">
<path fill="#999999" stroke="none" d="
M 272.35 164.45
L 272.35 172.85 311.15 161.5 308.8 153.4 272.35 164.45
M 272.35 172.85
L 272.35 164.45 264.25 166.9 266.25 174.65 272.35 172.85 Z"/>
</g>

<g id="Layer4_0_FILL">
<path fill="#666666" stroke="none" d="
M 290.4 190.1
L 282.4 190.1 282.4 403.5 290.4 403.5 290.4 190.1
M 282.4 173
L 282.4 190.1 290.4 190.1 290.4 173 282.4 173 Z"/>

<path fill="#999999" stroke="none" d="
M 282.4 190.1
L 277.4 190.1 277.4 403.5 282.4 403.5 282.4 190.1
M 282.4 173
L 277.4 173 277.4 190.1 282.4 190.1 282.4 173 Z"/>
</g>

<g id="Layer3_0_FILL">
<path fill="#FFFFFF" stroke="none" d="
M 222.05 155.15
L 220.55 155.15 300.5 160.5 303 160.55 303 160.45 303 155.15 222.05 155.15
M 220.55 155.05
L 222.05 155.15 303 155.15 303 155.05 220.55 155.05 Z"/>
</g>

<g id="Layer2_0_FILL">
<path fill="#FFFFFF" stroke="none" d="
M 302.75 142.75
L 305.25 142.8 305.25 137.4 222.8 137.4 302.75 142.75 Z"/>
</g>

<g id="Layer1_0_FILL">
<path fill="#FFFFFF" stroke="none" d="
M 418.35 195.55
L 420.85 195.6 420.85 190.2 338.4 190.2 418.35 195.55 Z"/>
</g>

<g id="Layer0_0_FILL">
<path fill="#990000" stroke="none" d="
M 309.9 170.15
Q 314.9 170.15 318.45 167.4 321.95 164.7 321.95 160.9 321.95 157.05 318.45 154.3 314.9 151.6 309.9 151.6 304.9 151.6 301.35 154.3 297.8 157.05 297.8 160.9 297.8 164.7 301.35 167.4 304.9 170.15 309.9 170.15 Z"/>
</g>

<path id="Layer5_0_1_STROKES" stroke="#999999" stroke-width="1" stroke-linejoin="round" stroke-linecap="round" fill="none" d="
M 272.35 164.45
L 264.25 166.9 266.25 174.65 272.35 172.875 311.15 161.5 308.8 153.4 272.35 164.45 Z"/>

<path id="Layer4_0_1_STROKES" stroke="#666666" stroke-width="1" stroke-linejoin="round" stroke-linecap="round" fill="none" d="
M 290.4 173
L 290.4 190.1 290.4 403.5 282.4 403.5"/>

<path id="Layer4_0_2_STROKES" stroke="#999999" stroke-width="1" stroke-linejoin="round" stroke-linecap="round" fill="none" d="
M 277.4 190.1
L 277.4 173
M 282.4 190.1
L 282.4 173
M 282.4 403.5
L 277.4 403.5 277.4 190.1
M 282.4 403.5
L 282.4 190.1"/>

<path id="Layer3_0_1_STROKES" stroke="#FFFFFF" stroke-width="1" stroke-linejoin="round" stroke-linecap="round" fill="none" d="
M 303 160.45
L 303 160.55 300.5 160.5 220.55 155.15 222.05 155.15 220.55 155.05 303 155.05 303 155.15 222.05 155.15"/>

<path id="Layer2_0_1_STROKES" stroke="#FFFFFF" stroke-width="1" stroke-linejoin="round" stroke-linecap="round" fill="none" d="
M 347.7575378417969 80.76393737792971
L 316.1355171203613 156.9084045410156 311.14849319458006 154.83734436035155 312.1534934997559 152.54771347045897 347.7575378417969 80.76393737792971 Z"/>

<path id="Layer1_0_1_STROKES" stroke="#FFFFFF" stroke-width="1" stroke-linejoin="round" stroke-linecap="round" fill="none" d="
M 357.6138000488281 230.52320251464846
L 310.3260780334472 162.9865676879882 314.7493385314941 159.8894943237304 316.1422126770019 161.96597671508778 357.6138000488281 230.52320251464846 Z"/>

<path id="Layer0_0_1_STROKES" stroke="#990000" stroke-width="1" stroke-linejoin="round" stroke-linecap="round" fill="none" d="
M 321.95 160.9
Q 321.95 164.7 318.45 167.4 314.9 170.15 309.9 170.15 304.9 170.15 301.35 167.4 297.8 164.7 297.8 160.9 297.8 157.05 301.35 154.3 304.9 151.6 309.9 151.6 314.9 151.6 318.45 154.3 321.95 157.05 321.95 160.9 Z"/>
</defs>

<g transform="matrix( 1, 0, 0, 1, 0,0) ">
<use xlink:href="#Layer6_0_FILL"/>
</g>

<g transform="matrix( 1, 0, 0, 1, 0,0) ">
<use xlink:href="#Layer5_0_FILL"/>

<use xlink:href="#Layer5_0_1_STROKES"/>
</g>

<g transform="matrix( 1, 0, 0, 1, 0,0) ">
<use xlink:href="#Layer4_0_FILL"/>

<use xlink:href="#Layer4_0_1_STROKES"/>

<use xlink:href="#Layer4_0_2_STROKES"/>
</g>

<g transform="matrix( 1, 0, 0, 1, 0,0) ">
<use xlink:href="#Layer3_0_FILL"/>

<use xlink:href="#Layer3_0_1_STROKES"/>
</g>

<g transform="matrix( -0.3835296630859375, 0.92352294921875, -0.92352294921875, -0.3835296630859375, 560.1,-72.3) ">
<use xlink:href="#Layer2_0_FILL"/>

<use xlink:href="#Layer2_0_1_STROKES" transform="matrix( -0.3835296630859375, -0.92352294921875, 0.92352294921875, -0.3835296630859375, 281.55,489.5) "/>
</g>

<g transform="matrix( -0.5735321044921875, -0.819122314453125, 0.819122314453125, -0.5735321044921875, 395.9,616.8) ">
<use xlink:href="#Layer1_0_FILL"/>

<use xlink:href="#Layer1_0_1_STROKES" transform="matrix( -0.573577880859375, 0.8191986083984375, -0.8191986083984375, -0.573577880859375, 732.35,29.45) "/>
</g>

<g transform="matrix( 1, 0, 0, 1, 0,0) ">
<use xlink:href="#Layer0_0_FILL"/>

<use xlink:href="#Layer0_0_1_STROKES"/>
</g>
</svg>
